<svg width="1350" height="676" xmlns="http://www.w3.org/2000/svg"><g><path d="M-127.45765917934477,-70.26418671011925L-65.6327355466783,716.4946074038744L-72.94226394966245,393.5755246505141Z" fill="#ffcf9d" stroke="#ffcf9d" fill-opacity="1" stroke-opacity="1"/><path d="M-127.45765917934477,-70.26418671011925L-72.94226394966245,393.5755246505141L-15.200799638405442,205.35632740706205Z" fill="#ffecc6" stroke="#ffecc6" fill-opacity="1" stroke-opacity="1"/><path d="M-127.45765917934477,-70.26418671011925L-15.200799638405442,205.35632740706205L-15.809996025636792,106.03940231725574Z" fill="#fff3df" stroke="#fff3df" fill-opacity="1" stroke-opacity="1"/><path d="M-127.45765917934477,-70.26418671011925L-15.809996025636792,106.03940231725574L81.72097245231271,-22.925652908161283Z" fill="#fff7f0" stroke="#fff7f0" fill-opacity="1" stroke-opacity="1"/><path d="M-127.45765917934477,-70.26418671011925L81.72097245231271,-22.925652908161283L180.18810560926795,-35.946980277076364Z" fill="#fff3e9" stroke="#fff3e9" fill-opacity="1" stroke-opacity="1"/><path d="M-127.45765917934477,-70.26418671011925L180.18810560926795,-35.946980277076364L563.0220328643918,-74.7670363727957Z" fill="#fee8d4" stroke="#fee8d4" fill-opacity="1" stroke-opacity="1"/><path d="M-127.45765917934477,-70.26418671011925L563.0220328643918,-74.7670363727957L783.9279391709715,-84.19047952629626Z" fill="#fedabb" stroke="#fedabb" fill-opacity="1" stroke-opacity="1"/><path d="M81.72097245231271,-22.925652908161283L-15.809996025636792,106.03940231725574L29.407597426325083,134.71345779486Z" fill="#ffeed6" stroke="#ffeed6" fill-opacity="1" stroke-opacity="1"/><path d="M81.72097245231271,-22.925652908161283L29.407597426325083,134.71345779486L195.97453485243022,118.49318230524659Z" fill="#ffe9cb" stroke="#ffe9cb" fill-opacity="1" stroke-opacity="1"/><path d="M81.72097245231271,-22.925652908161283L195.97453485243022,118.49318230524659L180.18810560926795,-35.946980277076364Z" fill="#ffead5" stroke="#ffead5" fill-opacity="1" stroke-opacity="1"/><path d="M180.18810560926795,-35.946980277076364L195.97453485243022,118.49318230524659L349.8497089371085,-38.3147329185158Z" fill="#fee4cb" stroke="#fee4cb" fill-opacity="1" stroke-opacity="1"/><path d="M180.18810560926795,-35.946980277076364L349.8497089371085,-38.3147329185158L563.0220328643918,-74.7670363727957Z" fill="#feddbf" stroke="#feddbf" fill-opacity="1" stroke-opacity="1"/><path d="M349.8497089371085,-38.3147329185158L195.97453485243022,118.49318230524659L371.9916661083698,90.94508889131248Z" fill="#fedcb6" stroke="#fedcb6" fill-opacity="1" stroke-opacity="1"/><path d="M349.8497089371085,-38.3147329185158L371.9916661083698,90.94508889131248L540.6642467435449,103.28422721475363Z" fill="#fed4aa" stroke="#fed4aa" fill-opacity="1" stroke-opacity="1"/><path d="M349.8497089371085,-38.3147329185158L540.6642467435449,103.28422721475363L563.0220328643918,-74.7670363727957Z" fill="#fed4b2" stroke="#fed4b2" fill-opacity="1" stroke-opacity="1"/><path d="M563.0220328643918,-74.7670363727957L540.6642467435449,103.28422721475363L631.6066312696785,-39.78221682831645Z" fill="#fecda8" stroke="#fecda8" fill-opacity="1" stroke-opacity="1"/><path d="M563.0220328643918,-74.7670363727957L631.6066312696785,-39.78221682831645L783.9279391709715,-84.19047952629626Z" fill="#fec79f" stroke="#fec79f" fill-opacity="1" stroke-opacity="1"/><path d="M631.6066312696785,-39.78221682831645L540.6642467435449,103.28422721475363L661.6834867279977,113.31109601072967Z" fill="#fec694" stroke="#fec694" fill-opacity="1" stroke-opacity="1"/><path d="M631.6066312696785,-39.78221682831645L661.6834867279977,113.31109601072967L784.3327924981713,21.080837873741984Z" fill="#fdc293" stroke="#fdc293" fill-opacity="1" stroke-opacity="1"/><path d="M631.6066312696785,-39.78221682831645L784.3327924981713,21.080837873741984L783.9279391709715,-84.19047952629626Z" fill="#fbc099" stroke="#fbc099" fill-opacity="1" stroke-opacity="1"/><path d="M783.9279391709715,-84.19047952629626L784.3327924981713,21.080837873741984L1016.7884312197566,-22.67855384387076Z" fill="#f4b38d" stroke="#f4b38d" fill-opacity="1" stroke-opacity="1"/><path d="M783.9279391709715,-84.19047952629626L1016.7884312197566,-22.67855384387076L1230.1006643101573,-87.78785686008632Z" fill="#eca380" stroke="#eca380" fill-opacity="1" stroke-opacity="1"/><path d="M1016.7884312197566,-22.67855384387076L784.3327924981713,21.080837873741984L1003.8140054326504,25.351730240508914Z" fill="#f0ab85" stroke="#f0ab85" fill-opacity="1" stroke-opacity="1"/><path d="M1016.7884312197566,-22.67855384387076L1003.8140054326504,25.351730240508914L1112.7133380342275,55.462341494858265Z" fill="#eb9e7a" stroke="#eb9e7a" fill-opacity="1" stroke-opacity="1"/><path d="M1016.7884312197566,-22.67855384387076L1112.7133380342275,55.462341494858265L1166.911655338481,-43.78294324502349Z" fill="#e89a80" stroke="#e89a80" fill-opacity="1" stroke-opacity="1"/><path d="M1016.7884312197566,-22.67855384387076L1166.911655338481,-43.78294324502349L1230.1006643101573,-87.78785686008632Z" fill="#e69680" stroke="#e69680" fill-opacity="1" stroke-opacity="1"/><path d="M1166.911655338481,-43.78294324502349L1112.7133380342275,55.462341494858265L1248.7843084149063,62.291522612795234Z" fill="#e49079" stroke="#e49079" fill-opacity="1" stroke-opacity="1"/><path d="M1166.911655338481,-43.78294324502349L1248.7843084149063,62.291522612795234L1230.1006643101573,-87.78785686008632Z" fill="#e18e80" stroke="#e18e80" fill-opacity="1" stroke-opacity="1"/><path d="M1230.1006643101573,-87.78785686008632L1248.7843084149063,62.291522612795234L1392.5164020247757,-15.512689305469394Z" fill="#dd8680" stroke="#dd8680" fill-opacity="1" stroke-opacity="1"/><path d="M1392.5164020247757,-15.512689305469394L1248.7843084149063,62.291522612795234L1396.456239502877,17.981858029961586Z" fill="#da7f7a" stroke="#da7f7a" fill-opacity="1" stroke-opacity="1"/><path d="M-15.809996025636792,106.03940231725574L-15.200799638405442,205.35632740706205L29.407597426325083,134.71345779486Z" fill="#ffeac4" stroke="#ffeac4" fill-opacity="1" stroke-opacity="1"/><path d="M29.407597426325083,134.71345779486L-15.200799638405442,205.35632740706205L48.26967537403107,170.32249588519335Z" fill="#ffe7bb" stroke="#ffe7bb" fill-opacity="1" stroke-opacity="1"/><path d="M29.407597426325083,134.71345779486L48.26967537403107,170.32249588519335L195.97453485243022,118.49318230524659Z" fill="#ffe4ba" stroke="#ffe4ba" fill-opacity="1" stroke-opacity="1"/><path d="M195.97453485243022,118.49318230524659L48.26967537403107,170.32249588519335L205.73059734888375,185.41673379018903Z" fill="#ffdfad" stroke="#ffdfad" fill-opacity="1" stroke-opacity="1"/><path d="M195.97453485243022,118.49318230524659L205.73059734888375,185.41673379018903L371.9916661083698,90.94508889131248Z" fill="#fed9a7" stroke="#fed9a7" fill-opacity="1" stroke-opacity="1"/><path d="M371.9916661083698,90.94508889131248L205.73059734888375,185.41673379018903L432.67226717434824,211.0198010969907Z" fill="#fed194" stroke="#fed194" fill-opacity="1" stroke-opacity="1"/><path d="M371.9916661083698,90.94508889131248L432.67226717434824,211.0198010969907L540.6642467435449,103.28422721475363Z" fill="#fecc8f" stroke="#fecc8f" fill-opacity="1" stroke-opacity="1"/><path d="M540.6642467435449,103.28422721475363L432.67226717434824,211.0198010969907L545.9378050547093,246.46287225186825Z" fill="#fec17b" stroke="#fec17b" fill-opacity="1" stroke-opacity="1"/><path d="M540.6642467435449,103.28422721475363L545.9378050547093,246.46287225186825L661.6834867279977,113.31109601072967Z" fill="#fec07b" stroke="#fec07b" fill-opacity="1" stroke-opacity="1"/><path d="M661.6834867279977,113.31109601072967L545.9378050547093,246.46287225186825L708.8926692958921,217.79639904387295Z" fill="#feb76b" stroke="#feb76b" fill-opacity="1" stroke-opacity="1"/><path d="M661.6834867279977,113.31109601072967L708.8926692958921,217.79639904387295L784.3327924981713,21.080837873741984Z" fill="#fcb878" stroke="#fcb878" fill-opacity="1" stroke-opacity="1"/><path d="M784.3327924981713,21.080837873741984L708.8926692958921,217.79639904387295L830.5557151604444,233.90874087810516Z" fill="#f9af68" stroke="#f9af68" fill-opacity="1" stroke-opacity="1"/><path d="M784.3327924981713,21.080837873741984L830.5557151604444,233.90874087810516L930.6443991791457,183.2751934044063Z" fill="#f5a865" stroke="#f5a865" fill-opacity="1" stroke-opacity="1"/><path d="M784.3327924981713,21.080837873741984L930.6443991791457,183.2751934044063L1003.8140054326504,25.351730240508914Z" fill="#f2a874" stroke="#f2a874" fill-opacity="1" stroke-opacity="1"/><path d="M1003.8140054326504,25.351730240508914L930.6443991791457,183.2751934044063L1112.7133380342275,55.462341494858265Z" fill="#ec9b66" stroke="#ec9b66" fill-opacity="1" stroke-opacity="1"/><path d="M1112.7133380342275,55.462341494858265L930.6443991791457,183.2751934044063L1148.8089092820883,262.2234821598977Z" fill="#ea9050" stroke="#ea9050" fill-opacity="1" stroke-opacity="1"/><path d="M1112.7133380342275,55.462341494858265L1148.8089092820883,262.2234821598977L1248.7843084149063,62.291522612795234Z" fill="#e4885b" stroke="#e4885b" fill-opacity="1" stroke-opacity="1"/><path d="M1248.7843084149063,62.291522612795234L1148.8089092820883,262.2234821598977L1290.1197450142354,281.9344041030854Z" fill="#e17947" stroke="#e17947" fill-opacity="1" stroke-opacity="1"/><path d="M1248.7843084149063,62.291522612795234L1290.1197450142354,281.9344041030854L1382.3497104272246,180.32498002052307Z" fill="#dd764e" stroke="#dd764e" fill-opacity="1" stroke-opacity="1"/><path d="M1248.7843084149063,62.291522612795234L1382.3497104272246,180.32498002052307L1396.456239502877,17.981858029961586Z" fill="#db7a67" stroke="#db7a67" fill-opacity="1" stroke-opacity="1"/><path d="M1396.456239502877,17.981858029961586L1382.3497104272246,180.32498002052307L1442.697137016803,630.5035526119173Z" fill="#d75f34" stroke="#d75f34" fill-opacity="1" stroke-opacity="1"/><path d="M-15.200799638405442,205.35632740706205L-72.94226394966245,393.5755246505141L19.001927208155394,364.5236959308386Z" fill="#ffcf9a" stroke="#ffcf9a" fill-opacity="1" stroke-opacity="1"/><path d="M-15.200799638405442,205.35632740706205L19.001927208155394,364.5236959308386L48.26967537403107,170.32249588519335Z" fill="#ffdaa8" stroke="#ffdaa8" fill-opacity="1" stroke-opacity="1"/><path d="M48.26967537403107,170.32249588519335L19.001927208155394,364.5236959308386L174.5061949454248,373.7634397018701Z" fill="#ffcb91" stroke="#ffcb91" fill-opacity="1" stroke-opacity="1"/><path d="M48.26967537403107,170.32249588519335L174.5061949454248,373.7634397018701L205.73059734888375,185.41673379018903Z" fill="#ffd198" stroke="#ffd198" fill-opacity="1" stroke-opacity="1"/><path d="M205.73059734888375,185.41673379018903L174.5061949454248,373.7634397018701L319.46043161675334,323.7158118467778Z" fill="#fec27f" stroke="#fec27f" fill-opacity="1" stroke-opacity="1"/><path d="M205.73059734888375,185.41673379018903L319.46043161675334,323.7158118467778L432.67226717434824,211.0198010969907Z" fill="#fec682" stroke="#fec682" fill-opacity="1" stroke-opacity="1"/><path d="M432.67226717434824,211.0198010969907L319.46043161675334,323.7158118467778L576.9701581634581,326.858251132071Z" fill="#feb568" stroke="#feb568" fill-opacity="1" stroke-opacity="1"/><path d="M432.67226717434824,211.0198010969907L576.9701581634581,326.858251132071L545.9378050547093,246.46287225186825Z" fill="#feb466" stroke="#feb466" fill-opacity="1" stroke-opacity="1"/><path d="M545.9378050547093,246.46287225186825L576.9701581634581,326.858251132071L708.8926692958921,217.79639904387295Z" fill="#feac5c" stroke="#feac5c" fill-opacity="1" stroke-opacity="1"/><path d="M708.8926692958921,217.79639904387295L576.9701581634581,326.858251132071L725.812978874892,421.7343578673899Z" fill="#fe9e46" stroke="#fe9e46" fill-opacity="1" stroke-opacity="1"/><path d="M708.8926692958921,217.79639904387295L725.812978874892,421.7343578673899L786.4384748227894,401.1206960119307Z" fill="#fb923b" stroke="#fb923b" fill-opacity="1" stroke-opacity="1"/><path d="M708.8926692958921,217.79639904387295L786.4384748227894,401.1206960119307L830.5557151604444,233.90874087810516Z" fill="#f99a47" stroke="#f99a47" fill-opacity="1" stroke-opacity="1"/><path d="M830.5557151604444,233.90874087810516L786.4384748227894,401.1206960119307L1031.6477361973375,395.8343132212758Z" fill="#f3842f" stroke="#f3842f" fill-opacity="1" stroke-opacity="1"/><path d="M830.5557151604444,233.90874087810516L1031.6477361973375,395.8343132212758L930.6443991791457,183.2751934044063Z" fill="#f18c3c" stroke="#f18c3c" fill-opacity="1" stroke-opacity="1"/><path d="M930.6443991791457,183.2751934044063L1031.6477361973375,395.8343132212758L1092.4598323367536,366.63927068933845Z" fill="#ec7b2a" stroke="#ec7b2a" fill-opacity="1" stroke-opacity="1"/><path d="M930.6443991791457,183.2751934044063L1092.4598323367536,366.63927068933845L1148.8089092820883,262.2234821598977Z" fill="#ea7f35" stroke="#ea7f35" fill-opacity="1" stroke-opacity="1"/><path d="M1148.8089092820883,262.2234821598977L1092.4598323367536,366.63927068933845L1236.0330964252353,397.8912127856165Z" fill="#e46823" stroke="#e46823" fill-opacity="1" stroke-opacity="1"/><path d="M1148.8089092820883,262.2234821598977L1236.0330964252353,397.8912127856165L1290.1197450142354,281.9344041030854Z" fill="#e1662a" stroke="#e1662a" fill-opacity="1" stroke-opacity="1"/><path d="M1290.1197450142354,281.9344041030854L1236.0330964252353,397.8912127856165L1380.102332336828,393.3500557858497Z" fill="#dd5522" stroke="#dd5522" fill-opacity="1" stroke-opacity="1"/><path d="M1290.1197450142354,281.9344041030854L1380.102332336828,393.3500557858497L1382.3497104272246,180.32498002052307Z" fill="#da5e31" stroke="#da5e31" fill-opacity="1" stroke-opacity="1"/><path d="M1382.3497104272246,180.32498002052307L1380.102332336828,393.3500557858497L1442.697137016803,630.5035526119173Z" fill="#d7441d" stroke="#d7441d" fill-opacity="1" stroke-opacity="1"/><path d="M-72.94226394966245,393.5755246505141L-65.6327355466783,716.4946074038744L-59.53026691451669,487.3147423379123Z" fill="#ff9f87" stroke="#ff9f87" fill-opacity="1" stroke-opacity="1"/><path d="M-72.94226394966245,393.5755246505141L-59.53026691451669,487.3147423379123L19.001927208155394,364.5236959308386Z" fill="#ffba90" stroke="#ffba90" fill-opacity="1" stroke-opacity="1"/><path d="M19.001927208155394,364.5236959308386L-59.53026691451669,487.3147423379123L125.73946377262473,556.2952894438058Z" fill="#ffa881" stroke="#ffa881" fill-opacity="1" stroke-opacity="1"/><path d="M19.001927208155394,364.5236959308386L125.73946377262473,556.2952894438058L174.5061949454248,373.7634397018701Z" fill="#ffac7b" stroke="#ffac7b" fill-opacity="1" stroke-opacity="1"/><path d="M174.5061949454248,373.7634397018701L125.73946377262473,556.2952894438058L181.29145103506744,573.9546326547861Z" fill="#ff976c" stroke="#ff976c" fill-opacity="1" stroke-opacity="1"/><path d="M174.5061949454248,373.7634397018701L181.29145103506744,573.9546326547861L319.46043161675334,323.7158118467778Z" fill="#fea66c" stroke="#fea66c" fill-opacity="1" stroke-opacity="1"/><path d="M319.46043161675334,323.7158118467778L181.29145103506744,573.9546326547861L422.2249634284526,572.8952036239207Z" fill="#fe8f5a" stroke="#fe8f5a" fill-opacity="1" stroke-opacity="1"/><path d="M319.46043161675334,323.7158118467778L422.2249634284526,572.8952036239207L576.9701581634581,326.858251132071Z" fill="#fe9a54" stroke="#fe9a54" fill-opacity="1" stroke-opacity="1"/><path d="M576.9701581634581,326.858251132071L422.2249634284526,572.8952036239207L578.3578547649086,546.3309502322227Z" fill="#fe8242" stroke="#fe8242" fill-opacity="1" stroke-opacity="1"/><path d="M576.9701581634581,326.858251132071L578.3578547649086,546.3309502322227L725.812978874892,421.7343578673899Z" fill="#fe873d" stroke="#fe873d" fill-opacity="1" stroke-opacity="1"/><path d="M725.812978874892,421.7343578673899L578.3578547649086,546.3309502322227L708.8941614981741,551.2178022321314Z" fill="#fe7130" stroke="#fe7130" fill-opacity="1" stroke-opacity="1"/><path d="M725.812978874892,421.7343578673899L708.8941614981741,551.2178022321314L875.1697563752532,488.4081923123449Z" fill="#f96c29" stroke="#f96c29" fill-opacity="1" stroke-opacity="1"/><path d="M725.812978874892,421.7343578673899L875.1697563752532,488.4081923123449L786.4384748227894,401.1206960119307Z" fill="#f8762d" stroke="#f8762d" fill-opacity="1" stroke-opacity="1"/><path d="M786.4384748227894,401.1206960119307L875.1697563752532,488.4081923123449L1031.6477361973375,395.8343132212758Z" fill="#f26d25" stroke="#f26d25" fill-opacity="1" stroke-opacity="1"/><path d="M1031.6477361973375,395.8343132212758L875.1697563752532,488.4081923123449L970.3562708292156,486.3935718219727Z" fill="#ef601c" stroke="#ef601c" fill-opacity="1" stroke-opacity="1"/><path d="M1031.6477361973375,395.8343132212758L970.3562708292156,486.3935718219727L1140.322367073968,554.7247447818518Z" fill="#ea5115" stroke="#ea5115" fill-opacity="1" stroke-opacity="1"/><path d="M1031.6477361973375,395.8343132212758L1140.322367073968,554.7247447818518L1092.4598323367536,366.63927068933845Z" fill="#e85719" stroke="#e85719" fill-opacity="1" stroke-opacity="1"/><path d="M1092.4598323367536,366.63927068933845L1140.322367073968,554.7247447818518L1236.0330964252353,397.8912127856165Z" fill="#e54f19" stroke="#e54f19" fill-opacity="1" stroke-opacity="1"/><path d="M1236.0330964252353,397.8912127856165L1140.322367073968,554.7247447818518L1313.7127002328634,537.2844769153744Z" fill="#e13a13" stroke="#e13a13" fill-opacity="1" stroke-opacity="1"/><path d="M1236.0330964252353,397.8912127856165L1313.7127002328634,537.2844769153744L1380.102332336828,393.3500557858497Z" fill="#dc3f19" stroke="#dc3f19" fill-opacity="1" stroke-opacity="1"/><path d="M1380.102332336828,393.3500557858497L1313.7127002328634,537.2844769153744L1374.5716529153287,534.6286608092487Z" fill="#da2f14" stroke="#da2f14" fill-opacity="1" stroke-opacity="1"/><path d="M1380.102332336828,393.3500557858497L1374.5716529153287,534.6286608092487L1442.697137016803,630.5035526119173Z" fill="#d82710" stroke="#d82710" fill-opacity="1" stroke-opacity="1"/><path d="M-59.53026691451669,487.3147423379123L-65.6327355466783,716.4946074038744L25.619575828313828,631.2419826630503Z" fill="#ff897a" stroke="#ff897a" fill-opacity="1" stroke-opacity="1"/><path d="M-59.53026691451669,487.3147423379123L25.619575828313828,631.2419826630503L125.73946377262473,556.2952894438058Z" fill="#ff9277" stroke="#ff9277" fill-opacity="1" stroke-opacity="1"/><path d="M125.73946377262473,556.2952894438058L25.619575828313828,631.2419826630503L188.07007810100913,727.7359243668616Z" fill="#ff7864" stroke="#ff7864" fill-opacity="1" stroke-opacity="1"/><path d="M125.73946377262473,556.2952894438058L188.07007810100913,727.7359243668616L181.29145103506744,573.9546326547861Z" fill="#ff795f" stroke="#ff795f" fill-opacity="1" stroke-opacity="1"/><path d="M181.29145103506744,573.9546326547861L188.07007810100913,727.7359243668616L396.6667106654495,711.6909415461123Z" fill="#fe664e" stroke="#fe664e" fill-opacity="1" stroke-opacity="1"/><path d="M181.29145103506744,573.9546326547861L396.6667106654495,711.6909415461123L422.2249634284526,572.8952036239207Z" fill="#fe6e49" stroke="#fe6e49" fill-opacity="1" stroke-opacity="1"/><path d="M422.2249634284526,572.8952036239207L396.6667106654495,711.6909415461123L556.4533850178123,624.8368706088513Z" fill="#fe6039" stroke="#fe6039" fill-opacity="1" stroke-opacity="1"/><path d="M422.2249634284526,572.8952036239207L556.4533850178123,624.8368706088513L578.3578547649086,546.3309502322227Z" fill="#fe6a39" stroke="#fe6a39" fill-opacity="1" stroke-opacity="1"/><path d="M578.3578547649086,546.3309502322227L556.4533850178123,624.8368706088513L708.8941614981741,551.2178022321314Z" fill="#fe652f" stroke="#fe652f" fill-opacity="1" stroke-opacity="1"/><path d="M708.8941614981741,551.2178022321314L556.4533850178123,624.8368706088513L621.508464217186,730.5404829885811Z" fill="#fe5427" stroke="#fe5427" fill-opacity="1" stroke-opacity="1"/><path d="M708.8941614981741,551.2178022321314L621.508464217186,730.5404829885811L861.0251678153872,656.8721198569983Z" fill="#fb481c" stroke="#fb481c" fill-opacity="1" stroke-opacity="1"/><path d="M708.8941614981741,551.2178022321314L861.0251678153872,656.8721198569983L875.1697563752532,488.4081923123449Z" fill="#f7541e" stroke="#f7541e" fill-opacity="1" stroke-opacity="1"/><path d="M875.1697563752532,488.4081923123449L861.0251678153872,656.8721198569983L970.3562708292156,486.3935718219727Z" fill="#f25018" stroke="#f25018" fill-opacity="1" stroke-opacity="1"/><path d="M970.3562708292156,486.3935718219727L861.0251678153872,656.8721198569983L925.5783892795444,718.5238655749708Z" fill="#f13b0e" stroke="#f13b0e" fill-opacity="1" stroke-opacity="1"/><path d="M970.3562708292156,486.3935718219727L925.5783892795444,718.5238655749708L1140.322367073968,554.7247447818518Z" fill="#ec3a0a" stroke="#ec3a0a" fill-opacity="1" stroke-opacity="1"/><path d="M1140.322367073968,554.7247447818518L925.5783892795444,718.5238655749708L1171.6467664483935,708.3807367924601Z" fill="#e92101" stroke="#e92101" fill-opacity="1" stroke-opacity="1"/><path d="M1140.322367073968,554.7247447818518L1171.6467664483935,708.3807367924601L1299.7958822920918,647.4902563914657Z" fill="#e21904" stroke="#e21904" fill-opacity="1" stroke-opacity="1"/><path d="M1140.322367073968,554.7247447818518L1299.7958822920918,647.4902563914657L1313.7127002328634,537.2844769153744Z" fill="#e0230a" stroke="#e0230a" fill-opacity="1" stroke-opacity="1"/><path d="M1313.7127002328634,537.2844769153744L1299.7958822920918,647.4902563914657L1374.5716529153287,534.6286608092487Z" fill="#db1c0b" stroke="#db1c0b" fill-opacity="1" stroke-opacity="1"/><path d="M1374.5716529153287,534.6286608092487L1299.7958822920918,647.4902563914657L1442.697137016803,630.5035526119173Z" fill="#d91207" stroke="#d91207" fill-opacity="1" stroke-opacity="1"/><path d="M-65.6327355466783,716.4946074038744L-17.14891101233661,848.6183867510408L20.2648544870317,862.5446509569883Z" fill="#ff7872" stroke="#ff7872" fill-opacity="1" stroke-opacity="1"/><path d="M-65.6327355466783,716.4946074038744L20.2648544870317,862.5446509569883L25.619575828313828,631.2419826630503Z" fill="#ff7770" stroke="#ff7770" fill-opacity="1" stroke-opacity="1"/><path d="M25.619575828313828,631.2419826630503L20.2648544870317,862.5446509569883L188.07007810100913,727.7359243668616Z" fill="#ff7165" stroke="#ff7165" fill-opacity="1" stroke-opacity="1"/><path d="M188.07007810100913,727.7359243668616L20.2648544870317,862.5446509569883L226.9796278886497,781.227949289605Z" fill="#ff6d5c" stroke="#ff6d5c" fill-opacity="1" stroke-opacity="1"/><path d="M188.07007810100913,727.7359243668616L226.9796278886497,781.227949289605L324.7195421811193,769.1658166889101Z" fill="#fe664f" stroke="#fe664f" fill-opacity="1" stroke-opacity="1"/><path d="M188.07007810100913,727.7359243668616L324.7195421811193,769.1658166889101L396.6667106654495,711.6909415461123Z" fill="#fe6247" stroke="#fe6247" fill-opacity="1" stroke-opacity="1"/><path d="M396.6667106654495,711.6909415461123L324.7195421811193,769.1658166889101L506.6223877016455,879.561656601727Z" fill="#fe5a3b" stroke="#fe5a3b" fill-opacity="1" stroke-opacity="1"/><path d="M396.6667106654495,711.6909415461123L506.6223877016455,879.561656601727L621.508464217186,730.5404829885811Z" fill="#fe5330" stroke="#fe5330" fill-opacity="1" stroke-opacity="1"/><path d="M396.6667106654495,711.6909415461123L621.508464217186,730.5404829885811L556.4533850178123,624.8368706088513Z" fill="#fe522e" stroke="#fe522e" fill-opacity="1" stroke-opacity="1"/><path d="M621.508464217186,730.5404829885811L506.6223877016455,879.561656601727L700.3245790209621,873.0065950658172Z" fill="#fe4c25" stroke="#fe4c25" fill-opacity="1" stroke-opacity="1"/><path d="M621.508464217186,730.5404829885811L700.3245790209621,873.0065950658172L861.0251678153872,656.8721198569983Z" fill="#fb411a" stroke="#fb411a" fill-opacity="1" stroke-opacity="1"/><path d="M861.0251678153872,656.8721198569983L700.3245790209621,873.0065950658172L873.2415831182152,842.3007766809314Z" fill="#f73912" stroke="#f73912" fill-opacity="1" stroke-opacity="1"/><path d="M861.0251678153872,656.8721198569983L873.2415831182152,842.3007766809314L925.5783892795444,718.5238655749708Z" fill="#f3310c" stroke="#f3310c" fill-opacity="1" stroke-opacity="1"/><path d="M925.5783892795444,718.5238655749708L873.2415831182152,842.3007766809314L924.5118536800146,811.8851383030415Z" fill="#f22f0a" stroke="#f22f0a" fill-opacity="1" stroke-opacity="1"/><path d="M925.5783892795444,718.5238655749708L924.5118536800146,811.8851383030415L1101.8221224658191,882.3353000264615Z" fill="#ee2703" stroke="#ee2703" fill-opacity="1" stroke-opacity="1"/><path d="M925.5783892795444,718.5238655749708L1101.8221224658191,882.3353000264615L1171.6467664483935,708.3807367924601Z" fill="#e91e00" stroke="#e91e00" fill-opacity="1" stroke-opacity="1"/><path d="M1171.6467664483935,708.3807367924601L1101.8221224658191,882.3353000264615L1229.1622045822442,848.5569577943534Z" fill="#e41400" stroke="#e41400" fill-opacity="1" stroke-opacity="1"/><path d="M1171.6467664483935,708.3807367924601L1229.1622045822442,848.5569577943534L1299.7958822920918,647.4902563914657Z" fill="#e00d00" stroke="#e00d00" fill-opacity="1" stroke-opacity="1"/><path d="M1299.7958822920918,647.4902563914657L1229.1622045822442,848.5569577943534L1437.2122288215905,785.4494427982718Z" fill="#dc0400" stroke="#dc0400" fill-opacity="1" stroke-opacity="1"/><path d="M1299.7958822920918,647.4902563914657L1437.2122288215905,785.4494427982718L1442.697137016803,630.5035526119173Z" fill="#d80000" stroke="#d80000" fill-opacity="1" stroke-opacity="1"/><path d="M20.2648544870317,862.5446509569883L506.6223877016455,879.561656601727L226.9796278886497,781.227949289605Z" fill="#fe654e" stroke="#fe654e" fill-opacity="1" stroke-opacity="1"/><path d="M226.9796278886497,781.227949289605L506.6223877016455,879.561656601727L324.7195421811193,769.1658166889101Z" fill="#fe5e41" stroke="#fe5e41" fill-opacity="1" stroke-opacity="1"/><path d="M506.6223877016455,879.561656601727L1101.8221224658191,882.3353000264615L700.3245790209621,873.0065950658172Z" fill="#f93d16" stroke="#f93d16" fill-opacity="1" stroke-opacity="1"/><path d="M700.3245790209621,873.0065950658172L1101.8221224658191,882.3353000264615L873.2415831182152,842.3007766809314Z" fill="#f3300b" stroke="#f3300b" fill-opacity="1" stroke-opacity="1"/><path d="M873.2415831182152,842.3007766809314L1101.8221224658191,882.3353000264615L924.5118536800146,811.8851383030415Z" fill="#ef2905" stroke="#ef2905" fill-opacity="1" stroke-opacity="1"/></g></svg>